<svg xmlns="http://www.w3.org/2000/svg" viewBox="0 0 64 64" role="img" aria-label="Arda">
  <defs>
    <linearGradient id="arda-favicon-gradient" x1="8" x2="56" y1="8" y2="56" gradientUnits="userSpaceOnUse">
      <stop offset="0" stop-color="#FC5A29" />
      <stop offset="1" stop-color="#3B82F6" />
    </linearGradient>
  </defs>
  <rect width="64" height="64" rx="18" fill="url(#arda-favicon-gradient)" />
  <path
    d="M22 17h20l8 8v22H14V25l8-8Zm2.8 8h14.4l3.2 3.2v10.6c-2.7-2.4-6.2-3.8-10.4-3.8-7.3 0-12.9 4.2-16 12V28.2L24.8 25Zm7.2 15.2c3.7 0 6.5 1.4 8.3 4.2 1.8 2.8 2.4 6.6 1.5 11.6h-5.9c.6-3.1.4-5.5-.6-7.2-.9-1.7-2.4-2.5-4.4-2.5-2.1 0-3.8.8-5 2.5-1.1 1.8-1.6 4.2-1.3 7.2h-6.1c-.4-5 .6-8.9 2.9-11.7 2.3-2.8 5.8-4.1 10.6-4.1Z"
    fill="#fff"
  />
</svg>
